Simulation
nRows=48
nColumns=15
endheader
time  TH_x TH_y TH_z SC_y  SC_z  SC_x  AC_y  AC_z  AC_x  GH_y  GH_z  GH_yy  EL_x  PS_y
0.0  0.000000  0.000000  0.000000  -35.11194181027898  -27.110410276536683  20.70365468697443  47.075392768697114  -9.505598531572446  18.138935738002157  -157.90098166549004  62.29987326722048  -150.70312903038013  28.514801521894828  0.000000
0.015  0.000000  0.000000  0.000000  -33.24711795336703  -27.453393059823366  19.82038870090162  47.278163308265746  -8.026129323554526  18.443491921362643  -154.61861303007228  62.951664273796965  -150.94013247732596  27.671033797574044  0.000000
0.03  0.000000  0.000000  0.000000  -33.32407103878703  -27.24882055407456  20.71916274971603  47.692363947551016  -8.15057605062027  17.93327968180979  -152.81056025098167  63.26238667206318  -151.3377733058056  26.50735143981493  0.000000
0.045  0.000000  0.000000  0.000000  -33.77890209983934  -26.699384361996206  20.192686104157172  47.24472234998929  -7.890410578150034  17.990236889438478  -151.05348148593797  61.904500777718695  -150.83922126960854  25.327342790859294  0.000000
0.06  0.000000  0.000000  0.000000  -34.73736466128149  -27.10425015386599  21.065192475581792  47.753906356428274  -8.129665067920069  17.6435697305166  -150.14852076414655  59.44781516850943  -151.09956354891946  24.595311236637798  0.000000
0.075  0.000000  0.000000  0.000000  -34.083830043640155  -27.619035202303962  19.433464321417066  48.350460569246806  -6.520465961715877  18.848677610594788  -150.7105680539152  55.35215659487933  -153.72487130229956  24.026115869510004  0.000000
0.09  0.000000  0.000000  0.000000  -32.96475743078291  -26.85288538024944  21.205799410978603  49.76676888941294  -8.164031256553942  19.654563628343713  -153.20789574126218  49.70014748204052  -159.01553236015815  23.851476474989347  0.000000
0.105  0.000000  0.000000  0.000000  -33.72316428421238  -15.918402975838786  29.85210528151615  49.98479182938733  -19.044493452142618  21.42296262177238  -157.58930906527274  42.739308080299004  -162.96409455069286  24.551472303554934  0.000000
0.12  0.000000  0.000000  0.000000  -35.081951796296124  -1.7014400830749734  28.390390655116725  48.29167929227528  -24.494082447500407  26.68745368797142  -164.4777315580602  34.76876350985571  -158.07179789882858  25.608536004064405  0.000000
0.135  0.000000  0.000000  0.000000  -32.88220615105385  1.5448189276499809  20.04725272723112  44.314299795397396  -20.6009017354583  27.532106055117204  -172.91023725831792  27.867221840895976  -150.85418873258217  26.732594265515143  0.000000
0.15  0.000000  0.000000  0.000000  -31.252666967394404  1.6235190055036444  16.87567245681312  42.9740960952715  -19.63140218451989  28.24638517495201  179.7289383608675  20.34387064611141  -146.49822730397565  26.73073020681838  0.000000
0.16499999999999998  0.000000  0.000000  0.000000  -30.775613319044425  5.576243947688915  15.594949753852996  42.36422730352612  -21.340951349626224  29.6744599711683  167.3652581722567  14.740836271624131  -137.30490614936423  26.324123047481912  0.000000
0.18  0.000000  0.000000  0.000000  -30.841619650436634  9.917254724669222  14.65497719461164  40.62123174736425  -23.0243181092596  29.951147906454835  152.4715478162851  11.961040375405195  -126.47478523496952  26.277469027241757  0.000000
0.195  0.000000  0.000000  0.000000  -31.387556399489227  12.882194302596359  14.80359244940473  38.88024907292647  -24.55096531494102  29.337853382159533  139.22019075866925  9.723032837656268  -117.37956542979539  26.1199258996771  0.000000
0.21  0.000000  0.000000  0.000000  -31.90393595910947  14.508522443344473  15.397810711457437  36.97573885612873  -25.25114605149409  27.77680107838127  124.98693375912312  8.16915131024094  -107.20671770992172  26.020757438992927  0.000000
0.22499999999999998  0.000000  0.000000  0.000000  -32.33632378963429  15.40702228867349  15.841930021007098  36.034488692306844  -25.67424463872385  26.913440151771088  103.30536626225425  6.607928062717207  -88.87342310410759  25.861605926604568  0.000000
0.24  0.000000  0.000000  0.000000  -32.746845791586175  16.001237674868445  16.343111810850257  35.78763047863597  -25.996549865066022  26.547929986895184  75.10889140371391  6.068463665832743  -63.10139671249524  25.63461917164725  0.000000
0.255  0.000000  0.000000  0.000000  -33.14985653716032  16.269829425221698  16.77532294157707  35.823931996381795  -26.124358912652028  26.399666488282083  52.28597269074018  6.645590123945257  -41.810953861382956  25.3791574034381  0.000000
0.27  0.000000  0.000000  0.000000  -33.470021369221165  16.42467744995992  17.08215191077183  35.989911087995004  -26.216611495008312  26.446687516823467  38.67461572655961  7.53606498681503  -29.0210060024728  25.119084875334188  0.000000
0.285  0.000000  0.000000  0.000000  -33.69245171739704  16.45999523931075  17.327515626667534  36.25152594954383  -26.2716088791482  26.586424995088176  31.04129414538707  8.22244228039624  -21.646789134820025  24.867530955621024  0.000000
0.3  0.000000  0.000000  0.000000  -33.78472466185051  16.414185598571866  17.458818421023963  36.53461078685465  -26.272937954288597  26.792063501004147  26.915182970153054  8.540614785687247  -17.39957605313971  24.64748283548376  0.000000
0.315  0.000000  0.000000  0.000000  -33.79970733320756  16.340066056984533  17.54523727760019  36.793347081289006  -26.277764663129094  27.010404111692832  24.932489521996697  8.497541353687735  -15.037611187422641  24.448089489330417  0.000000
0.32999999999999996  0.000000  0.000000  0.000000  -33.73484708419671  16.2405601475967  17.587670529751563  37.02913749210566  -26.24734966345686  27.22037040318796  24.281006889695888  8.193778619920824  -13.820565122921067  24.265174916104737  0.000000
0.345  0.000000  0.000000  0.000000  -33.63028103597103  16.13200712136904  17.58704568502405  37.21238831668635  -26.218845317539202  27.41736901386873  24.57849649537602  7.761016132872005  -13.47761706533235  24.10391210150234  0.000000
0.36  0.000000  0.000000  0.000000  -33.501757908338575  16.017115347836654  17.56007129100966  37.35689197046393  -26.16907611126737  27.579313302923715  25.499313229669514  7.330352568627234  -13.741619534210665  23.945072291274823  0.000000
0.375  0.000000  0.000000  0.000000  -33.390760183359106  15.93143173555294  17.55216863903659  37.48322717622833  -26.143209828397673  27.718164337334763  26.450766936278107  7.024124280296994  -14.142931106515704  23.789694742268473  0.000000
0.39  0.000000  0.000000  0.000000  -33.328320869661084  15.885426962766923  17.58714000286563  37.57783663625282  -26.121649650694597  27.81189283074606  27.16040621978368  6.896814446314446  -14.468440112025117  23.620270711187064  0.000000
0.40499999999999997  0.000000  0.000000  0.000000  -33.35476929684183  15.902204582749333  17.681044228871617  37.6601106061161  -26.12585188303866  27.87657832231265  27.277294988666622  7.01925999682406  -14.477327177192578  23.44722777791862  0.000000
0.42  0.000000  0.000000  0.000000  -33.48728258041008  15.972810767655123  17.827963713784225  37.712296450235115  -26.14487705634949  27.892273798007235  26.933784048181828  7.433041882160702  -14.37737025089676  23.272659388242143  0.000000
0.435  0.000000  0.000000  0.000000  -33.7536507836942  16.102557751425827  18.019587572807417  37.75677707469542  -26.187612475418465  27.877435057519033  26.305370207765225  8.17669131562656  -14.443203607035203  23.120602395264804  0.000000
0.44999999999999996  0.000000  0.000000  0.000000  -34.11811281246406  16.25550161710249  18.235331149132875  37.78458761776489  -26.233822052780223  27.8260872135998  25.65663954502867  9.24869826374396  -15.003634856343467  22.996029813676838  0.000000
0.46499999999999997  0.000000  0.000000  0.000000  -34.451428409793415  16.384663326468317  18.375792710668733  37.80985776191657  -26.22661416028677  27.785352148532635  24.8184290878135  10.67376879531342  -15.839065943437646  22.93713636331989  0.000000
0.48  0.000000  0.000000  0.000000  -34.59103528225387  16.454131256621295  18.397970814060194  37.84311948154174  -26.09949756389619  27.77590206687973  23.485875038461273  12.424763612091859  -16.334489086159667  22.948194611882766  0.000000
0.495  0.000000  0.000000  0.000000  -34.52602603101184  16.456679450755107  18.324607458108602  37.897790324448486  -25.93818201867926  27.8053372054063  21.769481435145575  14.474524347430677  -16.124739114177473  22.949815452698353  0.000000
0.51  0.000000  0.000000  0.000000  -34.37497874159323  16.385921167529354  18.195277410711668  37.94178342175327  -25.804088826409945  27.863743109249718  20.206825056704425  16.62374147057426  -15.545070017925198  22.8740236651428  0.000000
0.525  0.000000  0.000000  0.000000  -34.29655615890213  16.310783814148856  18.124149317947808  38.006351041473984  -25.697264895810967  27.93595971270362  19.06874978035026  18.617978402517213  -14.987345482938549  22.726582221930197  0.000000
0.54  0.000000  0.000000  0.000000  -34.28902478849657  16.26164825811315  18.097226942421024  38.0818605016885  -25.60687022963223  28.010684131007046  18.337904077113794  20.37523302253464  -14.638130260518924  22.561936217760266  0.000000
0.5549999999999999  0.000000  0.000000  0.000000  -34.323379732630634  16.217003015182968  18.079259058505947  38.16577524141916  -25.516329239312284  28.09305036250239  17.89309242890316  21.913977331036275  -14.500211807423623  22.402770182685593  0.000000
0.57  0.000000  0.000000  0.000000  -34.35881723630655  16.16808219623223  18.051664189764267  38.246389580369616  -25.41894112354632  28.17850423394874  17.62987377661782  23.25954906857332  -14.494870949019468  22.24094495880014  0.000000
0.585  0.000000  0.000000  0.000000  -34.39762644834116  16.12910613550983  18.032747084592703  38.32476402071734  -25.335862894053978  28.26120143655354  17.48482087560943  24.438855017007707  -14.579284558232933  22.077016422572836  0.000000
0.6  0.000000  0.000000  0.000000  -34.42668451147359  16.09040307423911  18.013568257287748  38.39158990694165  -25.258102694112374  28.33316769198005  17.42863202715262  25.469769464183624  -14.730725736223091  21.908834801018163  0.000000
0.615  0.000000  0.000000  0.000000  -34.46193813811227  16.05918612749967  18.004342347751688  38.4556210085698  -25.195312834147035  28.39802361359092  17.436742301790716  26.377871188836  -14.931018485666009  21.737015936552183  0.000000
0.63  0.000000  0.000000  0.000000  -34.49051543718819  16.029066935728405  17.99839503091736  38.50769655677914  -25.13966231963731  28.449344446694298  17.495891092846275  27.179036163347345  -15.168242695388253  21.560595135114287  0.000000
0.645  0.000000  0.000000  0.000000  -34.52381202233079  16.007354842216944  17.995837511594402  38.556914816139766  -25.094996932142053  28.497602878329754  17.5944822618609  27.89807149702514  -15.431807268735627  21.380673874753704  0.000000
0.6599999999999999  0.000000  0.000000  0.000000  -34.54886293789251  15.984252134285267  17.9906468382166  38.594968645966595  -25.05249536370161  28.53535404536822  17.726542398235804  28.547991527822123  -15.716597344976709  21.196326239018465  0.000000
0.6749999999999999  0.000000  0.000000  0.000000  -34.580271176169006  15.96676134368495  17.98813681925416  38.63254041284712  -25.017791863231018  28.57183730379915  17.883255957175027  29.147007069941242  -16.014962159237825  21.00785136828097  0.000000
0.69  0.000000  0.000000  0.000000  -34.60533287555849  15.947671197577897  17.982264395053225  38.66120928537843  -24.98386639953172  28.600515178087367  18.061359954888072  29.702263324690495  -16.32419977340615  20.81536736955156  0.000000
0.705  0.000000  0.000000  0.000000  -34.63882585411746  15.933379302455325  17.979768883248106  38.69090751462009  -24.9556711974614  28.629130937677786  18.254478040617094  30.22562187912635  -16.639730679915516  20.619630045319287  0.000000
